#!OML:ASF H:\Terrain\Walking\May29\JustinRory\Justin.ASF
:FULLY-SPECIFIED
:DEGREES
961
root 7.39289 17.4558 -15.5783 -1.35723 -4.48067 -1.23301
lowerback 5.86595 0.314915 -0.272463
upperback 1.19005 0.454463 2.28764
thorax -2.08396 0.232115 2.47458
lowerneck -16.7816 -1.61088 -9.6311
upperneck 15.5145 -0.41683 3.34331
head 7.57899 -0.45243 2.6296
rclavicle -1.49089e-015 3.97569e-016
rhumerus -16.5956 44.3341 -41.5391
rradius 133.302
rwrist -29.8973
rhand -3.02656 37.7848
rfingers 7.12502
rthumb 22.6885 9.09856
lclavicle -1.49089e-015 3.97569e-016
lhumerus -26.5925 -34.651 51.7243
lradius 127.468
lwrist 13.8397
lhand -2.72459 22.5954
lfingers 7.12502
lthumb 22.9783 51.2458
rfemur -3.46795 -2.71062 20.1355
rtibia 23.1776
rfoot -15.1665 -11.0673
rtoes -1.04094
lfemur -2.64053 2.90084 -14.2805
ltibia 24.1909
lfoot -17.167 4.56983
ltoes -12.8373
962
root 7.38978 17.4572 -15.5801 -1.45883 -4.23975 -1.63398
lowerback 6.0683 0.232665 0.113568
upperback 1.08303 0.376161 2.38413
thorax -2.30189 0.192582 2.36272
lowerneck -16.5812 -1.64784 -9.77706
upperneck 15.6421 -0.47695 3.4723
head 7.59135 -0.48174 2.69083
rclavicle -7.47927e-015 -5.1684e-015
rhumerus -14.352 44.695 -38.021
rradius 133.068
rwrist -30.1002
rhand -3.2859 37.4163
rfingers 7.12502
rthumb 22.4396 8.69985
lclavicle -7.47927e-015 -5.1684e-015
lhumerus -24.8924 -35.6217 48.3216
lradius 127.507
lwrist 14.4009
lhand -3.02584 23.3969
lfingers 7.12502
lthumb 22.6892 52.0831
rfemur -3.19135 -2.63501 20.6204
rtibia 22.8985
rfoot -15.0177 -11.4298
rtoes -0.968888
lfemur -2.66402 2.69695 -13.8155
ltibia 24.362
lfoot -17.1316 4.48507
ltoes -13.1949
963
root 7.39034 17.4612 -15.578 -1.38318 -4.12298 -2.26029
lowerback 5.98779 0.185109 0.681175
upperback 1.02158 0.354682 2.60764
thorax -2.31748 0.178561 2.27597
lowerneck -16.4747 -1.80287 -9.81394
upperneck 15.6519 -0.617145 3.08175
head 7.58774 -0.58964 2.55015
rclavicle -3.65267e-015 -7.55382e-015
rhumerus -12.3702 44.8049 -34.6673
rradius 132.903
rwrist -30.0817
rhand -3.42432 37.7941
rfingers 7.12502
rthumb 22.3067 9.0617
lclavicle -3.65267e-015 -7.55382e-015
lhumerus -23.3205 -36.2221 45.24
lradius 127.666
lwrist 14.899
lhand -3.13732 24.2086
lfingers 7.12502
lthumb 22.5822 52.9078
rfemur -3.14015 -2.52892 21.3439
rtibia 22.6892
rfoot -14.8516 -11.7178
rtoes -1.18234
lfemur -2.75232 2.5791 -13.1167
ltibia 24.365
lfoot -17.043 4.45787
ltoes -13.7862
964
root 7.39265 17.4633 -15.5587 -1.45759 -3.94666 -2.20254
lowerback 5.75133 0.122189 0.560985
upperback 1.03475 0.259329 2.6692
thorax -2.16926 0.131582 2.41451
lowerneck -16.2654 -1.90049 -9.96472
upperneck 15.5457 -0.686394 2.81302
head 7.5234 -0.656013 2.47567
rclavicle -7.52897e-015 -1.55052e-014
rhumerus -10.844 44.9233 -31.5637
rradius 132.923
rwrist -30.5109
rhand -3.31992 37.9963
rfingers 7.12502
rthumb 22.4069 9.27592
lclavicle -7.52897e-015 -1.55052e-014
lhumerus -21.988 -36.5052 42.4661
lradius 127.772
lwrist 15.5103
lhand -3.01678 24.8093
lfingers 7.12502
lthumb 22.6979 53.4944
rfemur -2.95149 -2.77636 21.2014
rtibia 22.6556
rfoot -14.9458 -11.5905
rtoes -0.889263
lfemur -2.54578 2.27465 -13.249
ltibia 24.1976
lfoot -17.0478 4.61436
ltoes -14.1874
965
root 7.39059 17.4651 -15.5446 -1.71618 -3.61772 -1.39253
lowerback 5.74178 0.0437641 -0.378672
upperback 1.01669 0.0946515 2.52255
thorax -2.17732 0.0557956 2.80508
lowerneck -15.4894 -1.83254 -10.5744
upperneck 15.063 -0.649047 3.4067
head 7.23115 -0.609203 2.77075
rclavicle -2.00276e-014 -2.82274e-014
rhumerus -9.60672 45.0433 -28.8394
rradius 132.906
rwrist -31.0435
rhand -3.06093 38.112
rfingers 7.12502
rthumb 22.6555 9.42173
lclavicle -2.00276e-014 -2.82274e-014
lhumerus -20.8962 -36.6698 40.0739
lradius 127.769
lwrist 16.2421
lhand -2.85918 25.1827
lfingers 7.12502
lthumb 22.8491 53.8492
rfemur -2.68909 -3.20492 20.2096
rtibia 22.7693
rfoot -15.0357 -11.4157
rtoes -0.824062
lfemur -2.152 2.10614 -14.1784
ltibia 23.8868
lfoot -16.7898 4.46225
ltoes -13.5176
966
root 7.37907 17.4686 -15.5558 -1.88403 -3.20019 -0.922282
lowerback 5.91741 -0.104804 -1.19635
upperback 0.989856 -0.151482 2.56522
thorax -2.28792 -0.0595987 3.3315
lowerneck -14.4988 -1.70012 -11.4266
upperneck 14.1993 -0.546599 4.25963
head 6.7752 -0.514507 3.1897
rclavicle 4.34841e-015 7.15625e-015
rhumerus -8.07316 45.0209 -26.3152
rradius 132.791
rwrist -31.4363
rhand -2.74751 38.2035
rfingers 7.12502
rthumb 22.9563 9.55032
lclavicle 4.34841e-015 7.15625e-015
lhumerus -20.0607 -36.5032 38.09
lradius 127.833
lwrist 17.0691
lhand -3.05514 25.3566
lfingers 7.12502
lthumb 22.661 54.0461
rfemur -2.6255 -3.52417 19.7284
rtibia 22.9492
rfoot -14.9481 -11.625
rtoes -1.70955
lfemur -1.91677 2.27835 -14.5931
ltibia 23.4797
lfoot -16.3887 3.87473
ltoes -13.0238
967
root 7.38578 17.475 -15.5477 -1.89695 -3.06496 -0.721707
lowerback 5.67938 -0.201583 -1.44487
upperback 1.05416 -0.295799 2.60111
thorax -2.07742 -0.133319 3.51772
lowerneck -14.6243 -1.64979 -11.6216
upperneck 14.1175 -0.436505 4.36087
head 6.76199 -0.459946 3.26479
rclavicle -7.03201e-015 -1.27222e-014
rhumerus -6.31535 44.728 -23.9766
rradius 132.639
rwrist -32.1453
rhand -1.95559 38.4321
rfingers 7.12502
rthumb 23.716 9.87532
lclavicle -7.03201e-015 -1.27222e-014
lhumerus -18.9321 -36.1191 36.4236
lradius 127.606
lwrist 17.7305
lhand -3.07639 25.4377
lfingers 7.12502
lthumb 22.6406 54.1298
rfemur -2.62767 -3.80878 19.4335
rtibia 23.0483
rfoot -14.9716 -11.5312
rtoes -1.81322
lfemur -1.72624 1.91271 -14.9281
ltibia 23.0987
lfoot -16.1911 4.13921
ltoes -12.9006
968
root 7.38885 17.4805 -15.5459 -1.91639 -2.79931 -0.853878
lowerback 5.66224 -0.299848 -1.16112
upperback 1.01535 -0.410861 2.52411
thorax -2.10223 -0.191987 3.28573
lowerneck -15.4128 -1.67599 -10.8378
upperneck 14.7598 -0.431723 3.67131
head 7.10325 -0.487939 2.92051
rclavicle 1.25234e-014 -2.22639e-014
rhumerus -5.34323 44.3844 -22.501
rradius 132.497
rwrist -32.916
rhand -2.88439 38.8867
rfingers 7.12502
rthumb 22.8249 10.2172
lclavicle 1.25234e-014 -2.22639e-014
lhumerus -17.6353 -35.963 34.8094
lradius 127.182
lwrist 18.1574
lhand -2.94018 25.2887
lfingers 7.12502
lthumb 22.7714 53.9648
rfemur -2.4925 -3.95394 19.5425
rtibia 22.9826
rfoot -15.0683 -11.5234
rtoes -1.19435
lfemur -1.6391 1.45802 -14.8549
ltibia 22.889
lfoot -16.0863 4.31255
ltoes -12.826
